<svg
              width="278"
              height="100"
              viewBox="0 0 278 100"
              fill="#000000"
              xmlns="http://www.w3.org/2000/svg"
              role="img"
            >
              <title>Riviera Mobile Home Park Logo</title>
              <path
                d="M121.73,98.33q-.15-.37-.42-1T120.69,96l-.7-1.49q-.36-.77-.69-1.44l-.58-1.18q-.25-.51-.37-.71-.19,1.86-.3,4t-.2,4.58h-1q.13-2.81.3-5.39t.42-4.93h.89q.45.75,1,1.72t1,2q.5,1.05,1,2.07t.83,1.84q.36-.82.83-1.84t1-2.07q.5-1,1-2t1-1.72h.85q.25,2.35.42,4.93t.3,5.39h-1q-.09-2.4-.2-4.58t-.3-4q-.12.21-.37.71l-.58,1.18q-.33.67-.68,1.44l-.7,1.49q-.34.72-.62,1.33t-.42,1Z"
              ></path>
              <path
                d="M136.42,96a5,5,0,0,1-.26,1.65,3.69,3.69,0,0,1-.73,1.27,3.32,3.32,0,0,1-1.11.81,3.57,3.57,0,0,1-2.82,0,3.31,3.31,0,0,1-1.11-.81,3.69,3.69,0,0,1-.73-1.27,5.39,5.39,0,0,1,0-3.31,3.77,3.77,0,0,1,.73-1.27,3.26,3.26,0,0,1,1.11-.82,3.56,3.56,0,0,1,2.82,0,3.27,3.27,0,0,1,1.11.82,3.77,3.77,0,0,1,.73,1.27A5,5,0,0,1,136.42,96Zm-1,0a3.64,3.64,0,0,0-.67-2.3,2.34,2.34,0,0,0-3.62,0,4.29,4.29,0,0,0,0,4.59,2.35,2.35,0,0,0,3.62,0A3.61,3.61,0,0,0,135.4,96Z"
              ></path>
              <path
                d="M139.48,92.58a3.44,3.44,0,0,1,.81-.41A3.62,3.62,0,0,1,141.6,92a3.49,3.49,0,0,1,1.48.3,3.07,3.07,0,0,1,1.09.83,3.69,3.69,0,0,1,.68,1.27,5.41,5.41,0,0,1,.23,1.62,4.84,4.84,0,0,1-.27,1.68,3.63,3.63,0,0,1-.77,1.27,3.32,3.32,0,0,1-1.19.8,4.11,4.11,0,0,1-1.54.28,8.84,8.84,0,0,1-1.69-.13,8.71,8.71,0,0,1-1.1-.28V88.44l1-.18Zm0,6.33a4.22,4.22,0,0,0,.66.14,7.88,7.88,0,0,0,1.15.07,2.61,2.61,0,0,0,2-.81A3.29,3.29,0,0,0,144,96a5.34,5.34,0,0,0-.13-1.21,2.85,2.85,0,0,0-.43-1,2.15,2.15,0,0,0-.78-.68,2.55,2.55,0,0,0-1.19-.25,3.09,3.09,0,0,0-.65.07,3.78,3.78,0,0,0-.58.17,3.25,3.25,0,0,0-.47.22l-.33.22Z"
              ></path>
              <path
                d="M148.35,89.8a.72.72,0,0,1-.21.54.73.73,0,0,1-1,0,.81.81,0,0,1,0-1.09.73.73,0,0,1,1,0A.72.72,0,0,1,148.35,89.8Zm-.22,10h-1v-7.7h1Z"
              ></path>
              <path
                d="M152.62,100a3.27,3.27,0,0,1-.85-.13,1.52,1.52,0,0,1-.61-.34,1.45,1.45,0,0,1-.37-.6,2.84,2.84,0,0,1-.13-.92V88.44l1-.18v9.68a2,2,0,0,0,.07.57.78.78,0,0,0,.2.34.81.81,0,0,0,.35.19,4.39,4.39,0,0,0,.51.1Z"
              ></path>
              <path
                d="M154,96a4.91,4.91,0,0,1,.29-1.76,3.89,3.89,0,0,1,.76-1.26,3,3,0,0,1,1.07-.75,3.24,3.24,0,0,1,1.24-.25,2.89,2.89,0,0,1,2.25.92,4.13,4.13,0,0,1,.84,2.84q0,.12,0,.24t0,.22H155a3.41,3.41,0,0,0,.7,2.17,2.6,2.6,0,0,0,2.08.76A4.18,4.18,0,0,0,159,99a5.14,5.14,0,0,0,.67-.25l.18.83a4,4,0,0,1-.78.28,4.9,4.9,0,0,1-1.34.16,4.45,4.45,0,0,1-1.72-.3,3.07,3.07,0,0,1-1.17-.83,3.29,3.29,0,0,1-.67-1.27A5.93,5.93,0,0,1,154,96Zm5.45-.61a3.06,3.06,0,0,0-.56-1.88,1.82,1.82,0,0,0-1.51-.67,2,2,0,0,0-.93.21,2.35,2.35,0,0,0-.71.56,2.59,2.59,0,0,0-.48.81,3.34,3.34,0,0,0-.2,1Z"
              ></path>
              <path
                d="M172.63,89.5h1V99.82h-1v-5H167v5h-1V89.5h1V94h5.58Z"
              ></path>
              <path
                d="M182.79,96a5,5,0,0,1-.26,1.65,3.69,3.69,0,0,1-.73,1.27,3.32,3.32,0,0,1-1.11.81,3.57,3.57,0,0,1-2.82,0,3.31,3.31,0,0,1-1.11-.81,3.69,3.69,0,0,1-.73-1.27,5.39,5.39,0,0,1,0-3.31,3.77,3.77,0,0,1,.73-1.27,3.26,3.26,0,0,1,1.11-.82,3.56,3.56,0,0,1,2.82,0,3.27,3.27,0,0,1,1.11.82,3.77,3.77,0,0,1,.73,1.27A5,5,0,0,1,182.79,96Zm-1,0a3.64,3.64,0,0,0-.67-2.3,2.34,2.34,0,0,0-3.62,0,4.29,4.29,0,0,0,0,4.59,2.35,2.35,0,0,0,3.62,0A3.61,3.61,0,0,0,181.77,96Z"
              ></path>
              <path
                d="M184.88,92.39q.43-.12,1.12-.27a8.75,8.75,0,0,1,1.79-.15,2.49,2.49,0,0,1,2.11.85l.29-.2a4.11,4.11,0,0,1,.54-.29,4.19,4.19,0,0,1,1.74-.36,3.29,3.29,0,0,1,1.42.26,2,2,0,0,1,.84.73,3,3,0,0,1,.4,1.12,9.15,9.15,0,0,1,.1,1.43v4.3h-1v-4a11.25,11.25,0,0,0-.07-1.32,2.55,2.55,0,0,0-.27-.92,1.31,1.31,0,0,0-.57-.55,2.16,2.16,0,0,0-1-.19,3.7,3.7,0,0,0-.81.08,3.38,3.38,0,0,0-.63.2,2.72,2.72,0,0,0-.44.24l-.24.18a4.62,4.62,0,0,1,.2.87,7.45,7.45,0,0,1,.07,1v4.38h-1v-4a11.26,11.26,0,0,0-.07-1.32,2.46,2.46,0,0,0-.27-.92,1.34,1.34,0,0,0-.59-.55,2.29,2.29,0,0,0-1-.19,7.92,7.92,0,0,0-1.18.07,3.13,3.13,0,0,0-.62.13v6.76h-1Z"
              ></path>
              <path
                d="M197.23,96a4.91,4.91,0,0,1,.29-1.76,3.89,3.89,0,0,1,.76-1.26,3,3,0,0,1,1.07-.75,3.24,3.24,0,0,1,1.24-.25,2.89,2.89,0,0,1,2.25.92,4.13,4.13,0,0,1,.84,2.84q0,.12,0,.24t0,.22h-5.39a3.41,3.41,0,0,0,.7,2.17,2.6,2.6,0,0,0,2.08.76,4.18,4.18,0,0,0,1.25-.15,5.14,5.14,0,0,0,.67-.25l.18.83a4,4,0,0,1-.78.28A4.9,4.9,0,0,1,201,100a4.45,4.45,0,0,1-1.72-.3,3.07,3.07,0,0,1-1.17-.83,3.29,3.29,0,0,1-.67-1.27A5.93,5.93,0,0,1,197.23,96Zm5.45-.61a3.06,3.06,0,0,0-.56-1.88,1.82,1.82,0,0,0-1.51-.67,2,2,0,0,0-.93.21,2.35,2.35,0,0,0-.71.56,2.59,2.59,0,0,0-.48.81,3.34,3.34,0,0,0-.2,1Z"
              ></path>
              <path
                d="M211.86,89.41a5.24,5.24,0,0,1,3.25.83,2.83,2.83,0,0,1,1.07,2.37,3.29,3.29,0,0,1-.31,1.5,2.54,2.54,0,0,1-.89,1,4,4,0,0,1-1.42.55,9.51,9.51,0,0,1-1.89.17h-1.39v4h-1V89.69a7.19,7.19,0,0,1,1.25-.22Q211.23,89.41,211.86,89.41Zm0,.88q-.56,0-1,0l-.67.07V95h1.28a10.23,10.23,0,0,0,1.48-.1,3.28,3.28,0,0,0,1.13-.36,1.8,1.8,0,0,0,.72-.72,2.44,2.44,0,0,0,.25-1.18,2.13,2.13,0,0,0-.27-1.13,2,2,0,0,0-.73-.71,3.19,3.19,0,0,0-1-.37A6.71,6.71,0,0,0,211.9,90.29Z"
              ></path>
              <path
                d="M220.2,91.94a3.39,3.39,0,0,1,1.28.22,2.2,2.2,0,0,1,.85.6,2.35,2.35,0,0,1,.48.9,4.13,4.13,0,0,1,.15,1.13v4.86l-.43.1-.65.11q-.37.06-.82.1t-.93,0a4.41,4.41,0,0,1-1.12-.13,2.47,2.47,0,0,1-.89-.42,2,2,0,0,1-.59-.74,2.58,2.58,0,0,1-.22-1.11,2.25,2.25,0,0,1,.24-1.07,2,2,0,0,1,.67-.74,3,3,0,0,1,1-.42,5.86,5.86,0,0,1,1.29-.13l.44,0,.45.06.37.07.22.07V95a5.07,5.07,0,0,0-.06-.78,1.72,1.72,0,0,0-.26-.69,1.45,1.45,0,0,0-.56-.49,2.1,2.1,0,0,0-1-.19,4.94,4.94,0,0,0-1.26.12l-.61.19-.13-.85a3.57,3.57,0,0,1,.78-.22A6.63,6.63,0,0,1,220.2,91.94Zm.09,7.18q.56,0,1,0A6.67,6.67,0,0,0,222,99V96.28a3,3,0,0,0-.52-.16,4.59,4.59,0,0,0-1-.08,5.56,5.56,0,0,0-.74.05,2.14,2.14,0,0,0-.71.22,1.48,1.48,0,0,0-.53.47,1.35,1.35,0,0,0-.21.79,1.7,1.7,0,0,0,.14.73,1.18,1.18,0,0,0,.4.48,1.77,1.77,0,0,0,.62.26A3.76,3.76,0,0,0,220.29,99.12Z"
              ></path>
              <path
                d="M228,92a5.17,5.17,0,0,1,.9.07,2.74,2.74,0,0,1,.59.15l-.19.83a2.15,2.15,0,0,0-.48-.13,5.48,5.48,0,0,0-1-.07,4.53,4.53,0,0,0-1,.09,2.77,2.77,0,0,0-.5.15v6.75h-1V92.48a7.12,7.12,0,0,1,1-.34A6.35,6.35,0,0,1,228,92Z"
              ></path>
              <path
                d="M232.9,95.63a11.19,11.19,0,0,1,1.06.86q.53.49,1.05,1.05t1,1.16a13.18,13.18,0,0,1,.78,1.12h-1.16a9.48,9.48,0,0,0-.81-1.15,13.26,13.26,0,0,0-1-1.06q-.51-.5-1-.91a5.67,5.67,0,0,0-.89-.62v3.74h-1V88.44l1-.18v7.17q.31-.27.77-.73l.94-.92.91-.9q.43-.44.71-.77h1.18l-.78.79-.92.91-.94.93Z"
              ></path>
              <path
                d="M110.5,92.39S74.61,114.21,55.23,84C44.84,67.75,33.09,46.57,33.09,46.57s18.49,3,26.38-9.26-2.73-18-8.33-18.22-6.4-.71-14.44,12-25.89,46.2-25.89,46.2-2.63.25-4.94.52A22,22,0,0,0,0,80C11.45,66,36.2,19.26,36.2,19.26s-19,2.68-25,13.83C11.46,27.35,12.29,22.3,27,19s46-6.19,43.11,10.19S42.51,48.35,42.51,48.35s1.69,5.26,20.61,31.88S110.5,92.39,110.5,92.39Zm3.72-49.58S120,55.31,96.69,72.33c5.16-7.55,6.12-10.87,6.93-16.14.95-6.11,3.08-8,3.08-8L93.94,50.63c3.28,1,5.41.94,5,3.74-.12.8-.11,2.42-.3,4.46-3.57,3.67-10.9,10.74-17.36,14.1s-12.92,2.91-4.92-11.18,7.52-13.51,6.28-13.51c-4.86,0-18.08,20.06-16.24,25.17s8.3,7,19.15-.48A52.82,52.82,0,0,0,98.48,60.26c-.67,5.06-2.76,11.89-10.14,15.83l1.53,3s25.36-12.85,29.46-26C122.29,43.59,114.21,42.82,114.21,42.82Zm71.18,15.5c-6.3,5.5-13.09,19.89-13.09,19.89L169.7,76l4-7.14c-5.91,5-14.49,10-21.62,10-4.74,0-6.39-5.74-5.21-12.26a53.93,53.93,0,0,1-7.59,6.35c-10.85,7.5-17.31,5.59-19.15.48s11.38-25.17,16.24-25.17c1.24,0,1.72-.58-6.28,13.51S128.52,76.3,135,72.92c4.28-2.22,8.93-6.07,12.63-9.48A24.55,24.55,0,0,1,155,51.94c11.62-9.68,17.18-5.07,14.57,2.13s-16.28,7.49-16.28,7.49-6.4,15.69,3,14.41c6.64-.91,14.25-5.6,18.1-8.24l11.27-20,3,2.53-2.79,5.35s.41-.24,8.65-6,9.32,0,9.32,0l-3.45,4.79C196.14,50.29,191.7,52.81,185.4,58.31Zm-31.34.63c3.56-.06,17.37-7,11.08-9.28S154.06,58.94,154.06,58.94ZM141.74,33.83c1.17.77,3,0,4.11-1.63s1-3.66-.12-4.43-3,0-4.11,1.63S140.57,33.06,141.74,33.83Zm-54.54,0c1.17.77,3,0,4.11-1.63s1-3.66-.12-4.43-3,0-4.11,1.63S86,33.06,87.2,33.83ZM244.55,59.06C236,74.77,206.83,93,213.69,69.12l.08-.25c-3.48,4.51-9.61,11-14.84,11-8.36,0-4.5-11.53,8-23.29a30,30,0,0,1,17.19-8.37c1.16-2.08,1.94-3.43,1.94-3.43l4.35-.42-2,3.69a20.37,20.37,0,0,1,5.81,1.07,27.71,27.71,0,0,0-6.58.4c-3.05,5.75-7.84,14.84-10.06,19.53C213,78.69,221.15,83.87,244.55,59.06Zm-29.73,7.08c1.84-4.26,5.21-10.59,7.78-15.25C201.35,58.57,190.83,87.24,214.82,66.14Z"
              ></path>
              <path
                fill="#968479"
                d="M270.24,22.06c1.16-2,3-.62,4.51-1.62,2.09-1.41.38-4.17-.46-5.87-2.5-5.1-6.66-8.38-11.71-10.79-4.12-2-9.8-4.4-14.49-3.64-2,.32-5,1.48-5.47,3.71-.38,1.67,1.68,4,.54,5.51-.92-.75-3-3-4.2-3.27-1.93-.34-3.83,2-4.93,3.37a21.53,21.53,0,0,0-4.42,15.21,28.63,28.63,0,0,0,1.95,8.11c.33.89,1,4,1.69,4.57s3.14.45,4.05.79c1.42.53,5.18,3,6.64,2.38s2-5.08,4.11-2.56c1.19,1.45.82,4.17,2.11,5.74s4.75,3.14,6.73,4c2.8,1.17,4.81-.48,7.39-1.81A43.4,43.4,0,0,0,270,42.45c3.94-2.87,7.36-7.11,7.7-12.12.16-2.26.29-4.85-1.64-6.41C274.47,22.62,272.12,22.64,270.24,22.06Zm-.16,17.63a33.28,33.28,0,0,1-9.68,6c-3.11,1.11-8.13-1.48-10.14-3.91-1.27-1.53-.82-7.41-4.6-5.42-1.23.65-1.47,2.17-3.07,2.16-1.16,0-3.18-1.68-4.43-2-1.53-.45-2.87-.41-3.89-1.76s-1.51-3.88-2-5.39a18.76,18.76,0,0,1-.69-10.74,16.88,16.88,0,0,1,5.05-8.68c.87-.77,2.65-2.32,3.93-1.8s1.81,2.44,3.52,3c1.38-2.78-1.52-4.89.8-7.17,2.56-2.52,7.65-1.14,10.54-.32,6.48,1.83,14.27,5,17.21,11.52,1.09,2.4,1.78,3.9-.86,4.94-.9.35-3.66.53-3.18,2.35.31,1.17,3,1.17,3.84,1.5C279.2,26.55,273.51,36.65,270.08,39.7Z"
              ></path>
              <path
                fill="#e6e1d7"
                d="M240.55,7.89c1.22.93,2.12,2.2,3.49,2.94.52-2.12-1.34-4.8-.11-6.68.92-1.42,3.32-1.83,4.86-2,5.23-.56,10.81,2.32,15.39,4.52a17.84,17.84,0,0,1,9.42,9.44c2.28,5.25-3.07,2.67-4.79,6.17,1.54,1.09,3.62.6,5.12,1.65,1.66,1.17,1.85,3.36,1.87,5.24,0,4.29-2.11,7.89-5.22,10.7-2.76,2.5-9.25,7.34-12.9,6.67a16,16,0,0,1-5.61-2.86c-2.08-1.53-2.43-2.74-3.22-5s-1.62-3.09-3.6-1.38c-.33.28-1.12,1.75-1.52,1.86-.85.23-2.11-.65-2.82-1-1.86-.84-5.18-1.1-6.62-2.4s-2.08-4.94-2.62-6.58A19,19,0,0,1,231.81,16C232.66,13.83,237.42,5.69,240.55,7.89Z"
              ></path>
              <path
                fill="#4d3c2f"
                d="M258.46,45.68a.27.27,0,0,1-.2-.08c-1.25-1.27-1.73-4.43-1-6.26a.28.28,0,0,1,.2-.16h.06a.27.27,0,0,1,.19.08,4.87,4.87,0,0,1,.94,6.31.27.27,0,0,1-.2.13Z"
              ></path>
              <path
                fill="#968479"
                d="M257.56,39.45a4.57,4.57,0,0,1,.9,6c-1.14-1.16-1.64-4.2-.9-6m0-.55h-.11a.55.55,0,0,0-.39.32c-.81,1.91-.29,5.22,1,6.56a.55.55,0,0,0,.39.16h.06a.55.55,0,0,0,.41-.25,5.14,5.14,0,0,0-1-6.65.55.55,0,0,0-.38-.15Z"
              ></path>
              <path
                fill="#4d3c2f"
                d="M248.07,32.8a.27.27,0,0,1-.27-.21,4.45,4.45,0,0,1,3.07-5.05l.09,0a.28.28,0,0,1,.27.28c0,2.65-1,4.28-3.09,5Z"
              ></path>
              <path
                fill="#968479"
                d="M251,27.8c0,2.56-1,4.06-2.9,4.73A4.18,4.18,0,0,1,251,27.8m0-.55a.55.55,0,0,0-.19,0,4.72,4.72,0,0,0-3.25,5.37.55.55,0,0,0,.71.4c2.2-.76,3.27-2.48,3.27-5.25a.55.55,0,0,0-.55-.55Zm0,1.1h0Z"
              ></path>
              <path
                fill="#4d3c2f"
                d="M235.42,33.2H235a.28.28,0,0,1-.26-.33,3.87,3.87,0,0,1,3.35-3.17h.06a.27.27,0,0,1,.27.24,3,3,0,0,1-.51,2.46A3.22,3.22,0,0,1,235.42,33.2Z"
              ></path>
              <path
                fill="#968479"
                d="M238.2,30c.24,2.1-.54,3-2.78,3h-.36a3.62,3.62,0,0,1,3.14-3m0-.55h-.12a4.2,4.2,0,0,0-3.56,3.38.55.55,0,0,0,.52.67h.38a3.46,3.46,0,0,0,2.75-.9,3.27,3.27,0,0,0,.58-2.68.55.55,0,0,0-.55-.49Z"
              ></path>
              <path
                fill="#4d3c2f"
                d="M258.28,36.3c-2.28,0-2.62-4.3-3-8.45-.07-.9-.14-1.74-.22-2.49C254.83,23,253.67,23,253.28,23a7,7,0,0,0-3.65,1.62c-1.77,1.3-4.3,2.84-6.31,2.84h0a2.75,2.75,0,0,1-2.42-1.24,1.36,1.36,0,0,1-.13-1.38c.85-1.84,6.38-2.7,8.72-3a4.67,4.67,0,0,0,.65-.12,14.05,14.05,0,0,0-1.31-.91,20.11,20.11,0,0,1-2-1.38c-1.76-1.47-3.24-3.86-3.3-5.33a1.56,1.56,0,0,1,.43-1.24,1.14,1.14,0,0,1,.81-.36c.9,0,1.62,1.1,2.81,2.92.4.62.86,1.32,1.38,2.06a3.84,3.84,0,0,0,2.94,2,2.32,2.32,0,0,0,1.52-.57,25.61,25.61,0,0,0,1.34-3.27c2-5.42,3.14-7.84,4.42-7.84a1,1,0,0,1,.45.11,1.17,1.17,0,0,1,.59.74c.38,1.31-1,3.88-3,7.36-.66,1.15-1.29,2.23-1.62,3a2.36,2.36,0,0,0-.31,1,1,1,0,0,0,.31,0,12.28,12.28,0,0,0,1.78-.24c.57-.1,1.23-.22,1.93-.31a11.6,11.6,0,0,1,1.47-.09,7,7,0,0,1,4.82,1.51,1.86,1.86,0,0,1,.58,1.36c0,.48-.33,1-1.72,1a30.31,30.31,0,0,1-5.27-.86c-1-.23-2-.44-2.7-.53l-.22,0h-.11a12,12,0,0,0,1.67,3.2c.47.75,1,1.54,1.36,2.27,1.2,2.23,2,5.64,1.1,7.55a2.31,2.31,0,0,1-1.66,1.36A1.79,1.79,0,0,1,258.28,36.3Z"
              ></path>
              <path
                fill="#968479"
                d="M259.22,8.36a.43.43,0,0,1,.2,0c1.69.87-3.07,7.63-4.3,10.34-.64,1.41-.38,1.81.5,1.81s2.15-.34,3.78-.55a11,11,0,0,1,1.4-.09c2.76,0,4.89,1.07,4.85,2.3,0,.37-.46.51-1.17.51-2,0-6-1.13-7.89-1.39l-.3,0c-2,0,.94,3.53,2.43,6.29s2.27,7.6-.18,8.11l-.25,0c-2.2,0-2.19-6.53-2.63-10.46-.23-2.07-1.15-2.86-2.36-2.86a7.56,7.56,0,0,0-4,1.73c-1.91,1.4-4.24,2.74-6,2.74a2.19,2.19,0,0,1-2-1c-1.28-2,5-3.12,8.19-3.51s-.3-1.68-2.33-3.38-3.78-4.82-2.84-5.74a.61.61,0,0,1,.43-.2c.85,0,1.89,2.11,3.74,4.75,1.18,1.69,2.4,2.2,3.39,2.2a2.86,2.86,0,0,0,1.89-.71c.79-.73,3.66-11,5.39-11m0-1.1h0c-1.69,0-2.85,2.62-4.93,8.2-.45,1.22-1,2.72-1.25,3.1a1.8,1.8,0,0,1-1.1.38,3.34,3.34,0,0,1-2.5-1.74c-.51-.73-1-1.43-1.37-2-1.29-2-2.06-3.17-3.27-3.17a1.68,1.68,0,0,0-1.2.51,2.1,2.1,0,0,0-.59,1.65c.07,1.82,1.83,4.34,3.49,5.73a20.51,20.51,0,0,0,2,1.42l.18.11a37.44,37.44,0,0,0-4.34.85c-2.37.64-3.63,1.37-4.09,2.36a1.92,1.92,0,0,0,.17,1.92A3.27,3.27,0,0,0,243.32,28c1.73,0,4-1,6.63-2.95a6.65,6.65,0,0,1,3.33-1.52c.32,0,1.06,0,1.27,1.88.08.74.15,1.58.22,2.47a42.06,42.06,0,0,0,.67,5.52c.19.85.78,3.44,2.83,3.44a2.33,2.33,0,0,0,.47,0,2.84,2.84,0,0,0,2-1.67c1-2.1.18-5.64-1.12-8-.4-.75-.9-1.54-1.37-2.3s-1-1.61-1.33-2.26c.6.11,1.34.27,2.12.44a30.54,30.54,0,0,0,5.38.87c2,0,2.25-1.11,2.27-1.58a2.38,2.38,0,0,0-.73-1.76,7.41,7.41,0,0,0-5.21-1.68,12.17,12.17,0,0,0-1.54.1c-.72.09-1.38.21-2,.31s-.93.16-1.28.2l.1-.22c.32-.71.94-1.78,1.6-2.91,2.21-3.83,3.52-6.26,3.08-7.79a1.73,1.73,0,0,0-.87-1.07,1.52,1.52,0,0,0-.7-.17Z"
              ></path>
            </svg>