<?xml version="1.0" encoding="utf-8"?>
<!-- Generator: Adobe Illustrator 24.0.3, SVG Export Plug-In . SVG Version: 6.00 Build 0)  -->
<svg version="1.2" baseProfile="tiny-ps"
	 id="svg22" xmlns:cc="http://creativecommons.org/ns#" xmlns:dc="http://purl.org/dc/elements/1.1/" xmlns:inkscape="http://www.inkscape.org/namespaces/inkscape" xmlns:rdf="http://www.w3.org/1999/02/22-rdf-syntax-ns#" xmlns:sodipodi="http://sodipodi.sourceforge.net/DTD/sodipodi-0.dtd" xmlns:svg="http://www.w3.org/2000/svg"
	 xmlns="http://www.w3.org/2000/svg" xmlns:xlink="http://www.w3.org/1999/xlink" viewBox="0 0 216 216"
	 xml:space="preserve">
<title>BIMI Group</title>
<rect x="0" fill="#FBEEE1" width="216" height="215.1"/>
<path fill="#8497A6" d="M121.8,130c-0.1-0.8-0.3-1.6-0.4-2.4c-0.1-0.7-0.2-1.4-0.1-2.1c0.1-0.6,0.5-1.3,1.1-0.8
	c0.4,0.3,0.7,0.7,1,1.2c0.1,0.2,0.2,0.3,0.3,0.5c0.1,0.3,0.1,0.6,0.2,0.9c0.1,0.7,0,5.7-1.5,4.5C121.9,131.4,121.8,130.6,121.8,130z
	 M121.8,130c-0.1-0.8-0.3-1.6-0.4-2.4c-0.1-0.7-0.2-1.4-0.1-2.1c0.1-0.6,0.5-1.3,1.1-0.8c0.4,0.3,0.7,0.7,1,1.2
	c0.1,0.2,0.2,0.3,0.3,0.5c0.1,0.3,0.1,0.6,0.2,0.9c0.1,0.7,0,5.7-1.5,4.5C121.9,131.4,121.8,130.6,121.8,130z M89.6,123.6
	c0.9,1,1,2.7,1.1,3.9c0.2,1.9,0.1,5.4-2.7,5.2c-2.3-0.2-3-3-2.8-4.8c0.2-1.6-0.7-4.6,1.1-5.4c0.7-0.3,1.7,0,2.4,0.5
	C89.1,123.1,89.4,123.4,89.6,123.6z M89.6,123.6c0.9,1,1,2.7,1.1,3.9c0.2,1.9,0.1,5.4-2.7,5.2c-2.3-0.2-3-3-2.8-4.8
	c0.2-1.6-0.7-4.6,1.1-5.4c0.7-0.3,1.7,0,2.4,0.5C89.1,123.1,89.4,123.4,89.6,123.6z"/>
<path fill="#F4D5B7" d="M86.9,124c0.1-2.2,0-4.6,0-6.8c0-2.3-0.2-4.8-0.2-7.2c0-3.1,2.5-3.3,4.7-4.7c3.3-2.1,6.4-3.5,10.3-4.3
	c4.8-1,9.8,0.6,14,2.9c1.9,1.1,4,2.2,5.5,3.9c1.8,2.1,1.2,4.9,1.1,7.4c0,3.5-0.1,7,0,10.5c0.2,3.5-0.6,7.9,1.3,11.1
	c2,3.3,7.1,2.2,10.3,2.6c3.1,0.3,6.1,0.8,9.2,0.8c4.2,0,8.8,0.5,13,1.1c2.8,0.4,5.6,0.3,8.3,1.5c8.2,3.5,8.1,14.8,8.6,22.1
	c0.2,3,0.3,6,0.4,8.9c0.1,1.5,0.1,3,0,4.5c-0.1,1.2,0.6,3.6-0.4,4.4c-0.7,0.6-3.6,0-4.5,0c-7.3,0.1-14.8,0.1-22.2-0.1
	c-8.8-0.3-17.8,0-26.6-0.5c-7.7-0.5-15.4-0.9-23.1-0.4c-6.8,0.4-13.7,0.4-20.5,0.9c-5.7,0.4-11.3,1.1-17.1,1.1
	c-5.1,0.1-10.1-0.6-15.1-0.4c-4.3,0.1-4-1-3.7-5.2c0.3-6,0.4-11.8,1.2-17.8c0.9-7,2.2-15.8,10.5-17.2c6.3-1,12.4-2.1,18.8-2.6
	c4.1-0.4,9-0.8,12.5-3.3c0.3-0.2,0.5-0.4,0.7-0.6C87,133.9,86.7,127.8,86.9,124z"/>
<path fill="#D0A177" d="M122.2,117.5c0.3,3.6,0.5,7.5,0.4,11.1c-0.1,1.3,0.3,5.9-1.2,6.2c-1.1,0.2-5.1-3.4-6.1-4.1
	c-2.8-1.8-6-3-9.1-4.2c-4.1-1.6-8.2-2.4-12.4-3.1c-1.7-0.3-6.2-0.8-6.6-0.9c0.1-4.1-0.6-8-0.3-12.3c0.3-3.8,2.4-6.3,5.5-8.1
	c3.4-1.8,7.2-2.1,10.9-1.9c3.9,0.2,8,0.5,11.7,1.7c2.9,1,4.5,2.8,5.5,5.2C121.7,110.2,121.9,114,122.2,117.5z"/>
<path fill="#F4D5B7" d="M135.8,91c-0.7,0.9-1.8,2.4-3,3.1c0,0.4-0.1,0.8-0.1,1.1c-0.2,2.5-0.3,5.1-0.9,7.4
	c-1.7,6.2-11.2,17.2-14.2,18.4c-3,1.2-17.4,0.8-19.9,0c-2.5-0.8-15-11.4-16.6-14.1c-1.4-2.5-2-5.1-2.5-7.8c-0.3-1.6-0.6-3.2-1-4.8
	C75.6,94.7,74,92.2,73,91c-2.5-3.2-4.1-6.8-3.7-10.8c0.2-1.6,0.3-4,2.3-4.5c0.1,0,0.3-0.1,0.4-0.1c1.1-0.1,2,0.3,2.7,1
	c-0.2-2.1-0.3-4.1-0.3-6.2c-0.1-3.1,0-6.2,0.2-9.2c0.2-3.3,0.6-6.8,2.1-9.7c1.7-3.4,4.7-4.9,8.1-6.4c3.1-1.4,6.5-2.5,9.9-2.7
	c5.3-0.3,10.8-0.6,15.9,0.8c5.5,1.5,11.3,1.6,16.7,3.4c2.5,0.8,5.2,2.3,5.9,5c0.9,3.1-0.1,6.6,0.2,9.7c0.3,3.4,0.3,6.5,0,9.9
	c-0.2,2.1-0.3,4.3-0.4,6.4c0.8-1.2,2-2.2,3.5-2c0.1,0,0.3,0,0.4,0.1c2,0.5,2.2,2.9,2.3,4.5C139.8,84.2,138.2,87.8,135.8,91z"/>
<path fill="#A3A9AC" d="M61.5,139.5c4-1.1,8-2.3,12.1-3.1c2.7-0.6,5.7-0.5,8.3-1.7c1.3-0.6,2.4-1.3,3.2-2.5c0.2-0.3,0.3-0.7,0.4-1.1
	c0.1-0.3,0.1-0.8,0.4-1c0.6-0.4,0.9,0.8,1,1.2c0.2,0.8,0.4,1.6,0.8,2.3c0.8,1.5,1.8,2.8,3.4,3.5c1.7,0.7,3.9,0.1,5.6-0.4
	c0.9-0.2,2.3-0.7,2.8,0.3c0.5,0.8,0.5,2.5,0.6,3.4c0.2,1.8,0.4,3.3,1.5,4.8c1.7,2.5,5.2,4.2,6,7.2c0.9,3.1,0.2,6.5,0.4,9.8
	c0.2,4.7,0,9.4,0,14c0,2.4,0.3,12.7,0.3,12.7H39c0,0-0.9-18.3-0.9-19.2c0.1-5.5,0.4-11,1.9-16.3c3-10.1,10.5-11.2,18.9-13.2
	C59.8,140,60.7,139.7,61.5,139.5z M104.2,162.8c-0.2-3-0.7-6.3-0.3-9.3c0.2-1.3,0.9-2.6,1.9-3.4c1.1-0.8,2.7-1.5,3.3-2.8
	c0.6-1.4,0.6-3.2,1.5-4.5c0.6-0.8,1.4-1.5,2.2-2.1c0.7-0.5,1.4-0.8,2.2-1.1c0.8-0.3,1.5-0.7,2.3-1.1c0.7-0.3,1.4-0.4,2.1-0.7
	c1.9-0.8,4.8-3.4,6.8-3.1c1.4,0.2,3,0.8,4.4,1.1c2.9,0.5,5.7,1,8.6,1.7c5.9,1.5,12,2.4,18.1,3.6c2.8,0.6,5.6,0.6,8.1,2.4
	c2.2,1.6,4.1,4,5.3,6.5c2.1,4.4,3.5,9.2,4.5,14c0.9,4.1,2.6,24.9,2.6,24.9h-72c0,0-0.7-7.9-0.8-9.6c-0.1-3.9-0.1-7.7-0.5-11.6
	C104.4,166,104.3,164.4,104.2,162.8z"/>
<path fill="#D0A177" d="M138.3,79.3c0.2,2.3-0.3,4.6-1.6,6.7c0.7-1.2,1-3.4,1-5.1c0-0.7-0.1-2.5-0.7-3.1c-1.3-1.2-1.7,0.6-2.5,1.7
	C134.2,76.1,137.9,75.7,138.3,79.3z M133,81.7c1.1-1,0.7,2.2,1.8,2.6c0,0.7-1.2,1.5-1.6,2.2c-0.4,0.9-0.4,1.8-0.9,2.6
	c-1.1-0.6,0.4-3.1,0.5-4C132.9,84.1,132.1,82.4,133,81.7z M74.3,79.6c-0.8-1.1-1.2-2.9-2.5-1.7c-0.6,0.5-0.7,2.3-0.7,3.1
	c0,1.6,0.4,3.8,1,5.1c-1.3-2.1-1.9-4.4-1.6-6.7C70.9,75.7,74.5,76.1,74.3,79.6z M112.1,93.6c-1.8,0.6-3.6,0.6-5.4,0.4
	c-0.8-0.1-3.7-0.3-4.1-0.6c0.3-0.6,3.3-0.3,4-0.3c1.6-0.1,3.3-0.2,4.7-1c2.9-1.7,1.7-4.1,0.5-6.6c-1.2-2.5-2.1-5-2.7-7.7
	c-0.3-1.2-0.4-2.4-0.8-3.6c-0.2-0.8-0.3-1.9,0-2.7c0.3,0.3,0.3,1.3,0.3,1.7c0.7,5,3.9,9.5,6.1,14C116,89.9,115.7,92.3,112.1,93.6z
	 M108.4,101.9c2-0.1,4.2,0.1,6.2-0.1c1.5-0.2,5.3,0.6,5.2-1.7c0.3,0.7,0.4,1.7,0.3,2.6c-2.2-0.6-4.3,0-6.5,0.2
	c-2.3,0.3-4.5,0.2-6.8,0.4c-2.2,0.1-4.7-0.3-7-0.7c-2-0.3-4.8-1.8-6.5-0.3c0-1,0.6-2.4,0.9-3.2C93.2,101.4,107.5,102,108.4,101.9z
	 M76,85c0.1,0.9,1.7,3.4,0.5,4c-0.5-0.8-0.5-1.7-0.9-2.6c-0.3-0.7-1.6-1.5-1.6-2.2c1.1-0.4,0.6-3.5,1.8-2.6
	C76.7,82.4,75.8,84.1,76,85z"/>
<path fill="#FFFFFF" d="M124.7,75c0.6,1.7-5.7,2.1-6.7,2.1c-1.3,0-5.9-0.3-5.5-2.4c0.2-1.2,2.5-2,3.5-2.2c1.7-0.4,3.5,0,5.1,0.5
	c0.9,0.3,2.2,0.7,3,1.3C124.4,74.5,124.7,74.8,124.7,75z M88.5,74.2c0.8-0.6,2.1-1,3-1.3c1.6-0.5,3.4-0.9,5.1-0.5
	c1,0.3,3.2,1.1,3.5,2.2c0.4,2-4.2,2.4-5.5,2.4c-1,0-7.3-0.4-6.7-2.1C87.9,74.8,88.2,74.5,88.5,74.2z"/>
<path fill="#6C4C32" d="M116.3,70.4c-1.3,0.3-6.5,3-6.9,0.8c-0.3-1.6,3.5-2.2,5-2.6c2.8-0.7,6-0.8,8.8-0.2c1.1,0.2,2,0.6,2.9,1.1
	c0.4,0.2,3.1,1.9,3.1,2.2c-1-0.3-2-0.7-3-1c-0.9-0.3-1.9-0.5-2.9-0.7c-1.1-0.2-2.2-0.3-3.3-0.2C118.7,69.9,117.5,70.1,116.3,70.4z
	 M92.7,69.8c-1.1-0.1-2.2,0-3.3,0.2c-1,0.2-2,0.4-2.9,0.7c-1,0.3-1.9,0.8-3,1c0-0.3,2.7-2,3.1-2.2c0.8-0.5,1.8-0.9,2.9-1.1
	c2.8-0.6,6-0.4,8.8,0.2c1.5,0.4,5.3,1,5,2.6c-0.4,2.2-5.6-0.4-6.9-0.8C95.1,70.1,93.9,69.9,92.7,69.8z"/>
<path fill="#4D7832" d="M120.6,74.7c0,1.4-1.1,2.5-2.5,2.5c-1.4,0-2.5-1.1-2.5-2.5c0-1.4,1.1-2.5,2.5-2.5
	C119.5,72.1,120.6,73.3,120.6,74.7z M94.5,72.1c1.4,0,2.5,1.1,2.5,2.5c0,1.4-1.1,2.5-2.5,2.5c-1.4,0-2.5-1.1-2.5-2.5
	C92,73.3,93.1,72.1,94.5,72.1z"/>
<path fill="#1C1B1A" d="M119.1,74.7c0,0.6-0.5,1.1-1.1,1.1c-0.6,0-1.1-0.5-1.1-1.1c0-0.6,0.5-1.1,1.1-1.1
	C118.7,73.6,119.1,74.1,119.1,74.7z M94.5,73.6c0.6,0,1.1,0.5,1.1,1.1c0,0.6-0.5,1.1-1.1,1.1s-1.1-0.5-1.1-1.1
	C93.5,74.1,93.9,73.6,94.5,73.6z"/>
<path fill="#FFFFFF" d="M95.3,72.7c0.4,0,0.8,0.4,0.8,0.8c0,0.4-0.4,0.8-0.8,0.8c-0.4,0-0.8-0.4-0.8-0.8
	C94.5,73.1,94.9,72.7,95.3,72.7z M119.9,73.7c0,0.2-0.2,0.4-0.4,0.4s-0.4-0.2-0.4-0.4s0.2-0.4,0.4-0.4S119.9,73.5,119.9,73.7z
	 M119.3,73.2c0,0.4-0.4,0.8-0.8,0.8c-0.4,0-0.8-0.4-0.8-0.8s0.4-0.8,0.8-0.8C119,72.4,119.3,72.7,119.3,73.2z"/>
<path fill="#1C1B1A" d="M112.6,74.4c0,0,1.5-2.7,5.1-2.6c3.6,0,6.6,2.7,6.6,2.7s-3.6-2-6.6-1.9C114.7,72.8,112.6,74.4,112.6,74.4z
	 M94.9,72.6c-3-0.2-6.6,1.9-6.6,1.9s3.1-2.7,6.6-2.7c3.6,0,5.1,2.6,5.1,2.6S97.9,72.8,94.9,72.6z"/>
<path fill="#826334" d="M77.8,85c-0.8-2.8-2-5.5-2.8-8.2c-0.5-1.8-1.8-4.4-1.6-6.3c-0.1,0-0.3,0-0.5,0c0-0.5,0.1-1,0.2-1.5
	c-0.2,0-0.3-0.1-0.6,0c-0.1-0.6,0.2-1.4,0.1-2.1c-0.1,0-0.3,0-0.5,0.1c0-0.7,0.3-1.4,0.2-2.1c-0.1,0.1-0.5,0-0.6,0.1
	c0.2-0.6,0.1-1.4,0.1-2.1c-0.1,0.1-0.5,0.3-0.6,0.5c-0.1-1.9-0.2-3.7-0.3-5.6c-0.2,0.1-0.8,0.2-1,0.3c0.1-0.4,0.9-3.6,1.1-3.7
	c-0.2,0.1-0.6,0.2-0.7,0.3c0.2-0.8,0.5-1.7,0.7-2.6c-0.3,0.1-0.7,0.2-1,0.3c0.4-1.1,1.1-2.1,1.4-3.2c-0.2,0.1-0.5,0.2-0.7,0.4
	c0.3-0.8,0.5-1.6,0.9-2.3c-0.4,0.1-0.9,0.4-1.2,0.8c0.5-1.3,1.3-2.4,2.2-3.5c1.2-1.5,1.9-1.9,2.6-2.5c-0.6-0.5-1.3-0.6-2.1-0.6
	c0.7-0.6,1.6-1.3,2.6-1.4c-0.3-0.1-0.4-0.4-0.7-0.5c0.6-0.4,1.4-0.6,2-0.9c-0.3-0.2-0.4-0.4-0.7-0.5c0.5-0.5,1.6-0.9,2.3-1.3
	c-0.3-0.1-0.5-0.3-0.8-0.3c1.7-1.5,4.4-2.1,6.6-2.3c-0.4-0.4-0.9-0.7-1.5-0.8c0,0,0-0.2,0-0.3c0-0.2,4.9-2.1,5.4-2.2
	c-0.2-0.4-0.7-0.7-1-1c2.8-0.6,5.7-0.5,8.5-0.6c-0.3-0.4-0.8-0.8-1.3-1c4.1-1.3,8.5-0.1,12.6,0.1c0-0.1-0.5-1.1-0.6-1.1
	c3.5,0.5,6.9,1.1,10.2,2.4c1.6,0.7,3.2,1.5,4.5,2.7c0.4,0.4,3.4,3.1,3.1,3.7c0.2-0.4,0.5-0.6,0.7-0.9c0.7,0.8,1.3,2.2,1.4,3.2
	c0-0.2,0.5-1.2,0.6-1.5c0.2-0.6,0.5-1.2,0.7-1.9c0.5,1.1,0.7,2.9,0.3,4c0.1-0.3,0.7-0.6,0.9-0.8c0.4-0.3,0.7-0.7,1.1-1
	c-0.2,0.2-0.3,2.6-0.3,3c0.5-0.1,0.9-0.4,1.1-0.8c0,0.3,0.1,0.8,0,1.1c0.3-0.2,0.7-0.3,1-0.6c0,0.5,0.1,1,0.2,1.4c0.1,0,1.1,0,1-0.3
	c0.2,0.6,0.1,1.3,0.1,2c0.4-0.3,0.8-0.8,1.2-1.1c0.2,1.1-0.5,2.3-0.1,3.2c0.4-0.3,0.7-0.7,1.2-1c-0.2,1.2-0.5,2.7-0.9,3.9
	c0.3-0.2,0.7-0.3,1-0.5c0,0.5-0.1,1.1-0.1,1.7c0.2-0.2,0.6-0.5,0.7-0.7c-0.2,0.3-0.1,1.5-0.3,1.9c-0.2,0.5-0.6,0.9-0.8,1.4
	c0.4,0,0.8,0,1.2-0.1c-0.5,0.7-1.1,1.3-1.4,2.1c0.1-0.1,1-0.4,1.2-0.4c0,1.5-1.1,2.5-1.3,3.8c0.5-0.1,0.9-0.5,1.3-0.8
	c-0.2,0.9-0.5,1.9-0.8,2.8c0.2-0.2,0.4-0.3,0.6-0.6c-0.2,0.7-0.5,1.4-0.9,1.9c0.2,0,0.4,0.3,0.6,0.3c-0.2,0.4-0.5,0.8-0.8,1.1
	c0.2,0,0.4,0.1,0.6,0.1c-0.2,0.2-0.4,0.6-0.7,0.8c0.3,0.1,0.4,0.4,0.6,0.5c-0.2,0.2-0.3,0.5-0.6,0.7c0.1,0,0.2,0,0.3-0.1
	c0.2,1.8-0.5,4-0.8,5.8c-0.3,2.2-0.7,4.3-1.1,6.5c-0.5,2.9-1.8,7.1-2.5,8.3c-0.6-2.5-0.1-5.6-0.1-8.2c0-3,0-6.1-0.3-9.1
	c-0.5-4.6-0.7-8-4.5-11.2c-0.9-0.8-1.6-1.4-2.3-2.4c-0.9-1.1-1.2-1.4-2.6-1.2c-4.1,0.6-8.1,0.4-12-0.4c-4.7-0.9-9-0.5-13.6,0.2
	c-3.9,0.6-8.2,1.3-11.4,3.6c-5.1,3.6-5.9,12.4-6.2,18c-0.2,2.9,0.1,5.7,0.1,8.6C77.9,83.5,77.9,84.2,77.8,85z M133.4,50.5
	c-0.1,0.9-0.5,1.8-0.6,2.7c-0.3,1.6-0.3,2.9-1.2,4.4c0-2.3,0.4-4.4,0-6.7c-0.2,1.6-1.1,3.2-1.4,4.8c0.2-2.4,0.6-4.8,0.1-7.2
	c-0.3,1.1-0.8,1.9-1.3,2.8c-0.2-1.8-1-4.1-1.8-5.7c0.2,1.3,0,2.6-0.7,3.8c-0.1-1.7-1.3-3.5-2.2-4.9c0.4,1.4,0,2.7-0.4,4.1
	c-0.5-0.8-1.1-1.7-1.5-2.6c-0.2,0.7,0.3,1.8-0.3,2.3c-0.2-0.7-0.4-1.4-0.9-1.8c-0.2,0.6,0,1.4-0.4,1.9c-1.3-2.8-3-4.9-5.2-7.1
	c0.8,2.9,1.3,5.5,1.4,8.6c-0.9-1.8-2-3.5-2.9-5.3c0.6,1.3,1,2.8,0.9,4.2c-0.8-0.5-1.3-1.7-1.9-2.4c0.3,0.7,0.4,2-0.1,2.7
	c-0.8-0.8-1.2-2.4-2-3.4c-1.5-2-3.4-3.6-5.1-5.4c1.6,1.9,2.6,5.6,2.6,8.1c-2-2.2-4.2-6.3-7.1-7.3c0.3,2.6,4,5.6,3.1,8.5
	c-1.9-2.3-3.5-4.6-5.9-6.6c0.4,1.5,1.9,2.8,1.8,4.5c-2.2-1.9-4.1-4.1-7.1-4.6c-0.7-0.1-1.5-0.1-2.3-0.2c-1.4-0.2-2.9-0.3-4.4-0.4
	c1.5,0.1,3.6,1.2,4.1,2.5c-2.3-0.7-5.3-0.4-7.7-0.1c1.2,0.3,2.8,0.4,3.7,1.4c-0.9,0.1-2.4-0.3-3.1,0.2c0.8,0.4,1.9,0.6,2.4,1.3
	c-0.4-0.6-4.8-0.1-5.5,0.1c-1.7,0.4-3.6,1.3-4.9,2.4c1-0.1,2-0.3,3.1,0c-1.3,0.2-2.6,1-3.3,2.1c0.9-0.3,1.6-0.4,2.6-0.5
	c-2.3,1.1-3.5,2.8-4.5,5c-0.3-1,0-2.9,0.4-3.8c-0.7,0.6-1.3,1.4-1.9,2.1c-0.1-1.5,0.4-2.7,0.5-4.1c-0.3,0.2-0.7,0.8-1.2,1.4
	c0,0,0-0.1,0-0.1c-0.3,0.1-0.7,0.2-1,0.3c0.4-1.1,1.1-2.1,1.4-3.2c-0.2,0.1-0.5,0.2-0.7,0.4c0.3-0.8,0.5-1.6,0.9-2.3
	c-0.4,0.1-0.9,0.4-1.2,0.8c0.5-1.3,1.3-2.4,2.2-3.5c1.2-1.5,1.9-1.9,2.6-2.5c-0.6-0.5-1.3-0.6-2.1-0.6c0.7-0.6,1.6-1.3,2.6-1.4
	c-0.3-0.1-0.4-0.4-0.7-0.5c0.6-0.4,1.4-0.6,2-0.9c-0.3-0.2-0.4-0.4-0.7-0.5c0.5-0.5,1.6-0.9,2.3-1.3c-0.3-0.1-0.5-0.3-0.8-0.3
	c1.7-1.5,4.4-2.1,6.6-2.3c-0.4-0.4-0.9-0.7-1.5-0.8c0,0,0-0.2,0-0.3c0-0.2,4.9-2.1,5.4-2.2c-0.2-0.4-0.7-0.7-1-1
	c2.8-0.6,5.7-0.5,8.5-0.6c-0.3-0.4-0.8-0.8-1.3-1c4.1-1.3,8.5-0.1,12.6,0.1c0-0.1-0.5-1.1-0.6-1.1c3.5,0.5,6.9,1.1,10.2,2.4
	c1.6,0.7,3.2,1.5,4.5,2.7c0.4,0.4,3.4,3.1,3.1,3.7c0.2-0.4,0.5-0.6,0.7-0.9c0.7,0.8,1.3,2.2,1.4,3.2c0-0.1,0.1-0.4,0.2-0.7
	c0,0.2,0,0.5,0,0.7c-0.2,1.3-0.7,2.6-0.6,3.9c0.4-0.6,0.8-1.1,1.1-1.7c0,0.8,0.2,1.6,0.1,2.4c0.2-0.6,0.5-1.4,0.9-1.8
	c0.1,1.3,0.7,2.6,0.4,4c0.5-1.1,1.4-2.4,1.5-3.7c0.3,1.1,0.1,2.6,0.1,3.8c0-0.7,0.2-1.6,0.6-2.2c0.3,0.6,0,1.2,0,1.8
	c0.3-0.3,0.6-0.8,1.1-1c0.1,0.9-0.2,1.7-0.4,2.6c0.3-0.4,0.9-0.9,1.4-1.2c0,0.8-0.1,1.6-0.3,2.4c-0.1,0.6-0.3,1.2-0.5,1.7
	c0.3-0.4,0.7-0.8,1.1-1.2C133.4,48.4,133.5,50.1,133.4,50.5z"/>
<path fill="#1C1B1A" d="M99.5,145.9c-0.3,0.1-0.7,0.2-1,0.3c-1.1,0.6,0.5,1.3,0.4,1.9c-0.1,0.6-1.5,0.6-2,0.8c-1,0.4-1.5,1.4-2,2.3
	c-0.4,0.7-0.9,1.8-1.8,2c-0.9,0.2-1-0.3-1.3-1.1c-0.4-0.9-0.8-1.3-1.5-1.9c-1.1-1-1.9-2.1-2.8-3.2c-1.4-1.7-1.9-3.8-3.1-5.6
	c-1.2-1.8-2.3-3.5-1.7-5.7c0.5-1.7,1.9-2.7,2.8-4.3c0.5-1,1.1-1.8,1.8-0.7c0.6,1.1,1.1,2.3,1.8,3.3c0.7,1,1.6,1.3,2.5,2.1
	c0.7,0.7,1.5,2,2.6,2.1c0.9,0,1.7-0.9,2.5-1.2c1.7-0.7,3,0,2.5,2c-0.3,1.3-1.4,3.9-0.2,5c0.2,0.2,0.9,0.5,1.2,0.8
	C100.9,145.3,99.9,145.7,99.5,145.9z M120,152.3c-0.5,0-0.8-0.4-1.6-1c-0.9-0.7-1.6-1.5-2.4-2.4c-0.4-0.5-0.8-1.1-1.2-1.6
	c-0.4-0.5-0.7-1.1-0.8-1.8c-0.1-0.7,0.2-2.3-0.9-2.5c-1-0.2-2.2,0.2-3.1,0.6c0.2-0.4,0.4-0.9,0.6-1.3c0.2-0.5,0.5-1.1,0.9-1.4
	c0.5-0.4,1-0.7,1.6-0.9c2-0.7,2.6,1.6,4.7,1c1.4-0.4,2-1.8,3.1-2.6c1.2-0.8,2.7-0.9,4.1-0.5c1.2,0.4,1.6,1.3,1.7,2.6
	c0.2,3.1-1.6,5.9-3.3,8.4c-0.7,1-1.5,2-2.5,2.7C120.6,152.1,120.3,152.3,120,152.3z"/>
<path fill="#B7BDC0" d="M115.1,141.5c-0.5-0.6-1.4-0.6-2.1-0.4c-1.4,0.4-1.9,1.8-3,2.6c0.4-1.4,0.7-3,2.1-3.6c2.5-1,5.7-1.5,7.6-3.6
	c1.2-1.3,1.8-3.1,2.3-4.8c0.1-0.5,0.4-1,0.6-1.5c0.2-0.6,0.3-1.2,0.4-1.8c0.1-0.8,0.1-1.6-0.3-2.3c-0.1-0.2-0.4-0.5-0.5-0.7
	c0-0.3,0-0.8-0.1-1c0.4,0.1,1.9,1.5,2.1,1.6c0.6,0.6,1,1.2,1.5,1.9c0.8,1.3,0.9,2.9,1.3,4.3c0.4,1.5,0.4,3.1,0.3,4.6
	c-0.1,1.5-0.6,3-0.9,4.4c-0.5,2.5-2.1,5.4-3.7,7.3c-0.6,0.7-0.9,1.1-1.2,2c-0.4,1.4-1.8,3-2.4,0.8c-0.4-1.4-0.9-2.8-1.5-4.1
	c-0.5-1.3-1.4-2.4-1.9-3.7c-0.2-0.5-0.1-1-0.2-1.4C115.4,142,115.3,141.7,115.1,141.5z M94.9,135.3c0.4,0.1,0.9,0.3,1.3,0.3
	c0.9,0.2,1.8,0.1,2.7,0.5c0.3,0.1,0.6,0.4,0.8,0.7c0.2,0.3,0.1,0.7,0.2,1.1c-0.1-0.3-0.5-0.3-0.8-0.2c-0.4,0-0.5,0.5-0.7,0.8
	c-0.3,0.4-0.5,0.9-0.7,1.3c-0.4,0.9-0.8,1.8-1.1,2.7c-0.9,2.4-1.4,4.9-2.2,7.3c-0.2,0.8-1.3,4-2.1,3.6c-0.5-0.2-0.8-1.8-1-2.3
	c-0.3-0.7-0.7-1.3-1.1-1.9c-2.6-3.8-5-7.6-7.2-11.7c-0.7-1.3-1.2-2.3-0.5-3.6c0.7-1.2,1.4-2.3,1.4-3.8c0.1-1,0-2,0-3
	c0-0.9,0.2-1.8,0.4-2.7c0.2-0.9,0.6-2.1,1.4-2.6c0.2-0.1,0.5-0.3,1.1-0.3c0,0.2,0,0.6,0,0.8c-0.4,0-0.8,0.6-0.9,0.8
	c-0.4,0.8-0.3,2-0.1,2.9c0.8,3.5,3.4,5.8,6.2,7.8C93,134.5,93.9,134.9,94.9,135.3z"/>
<path fill="#BAB6B3" d="M61.5,139.5c4-1.1,8-2.3,12.1-3.1c2.7-0.6,5.7-0.5,8.3-1.7c1.3-0.6,2.4-1.3,3.2-2.5c0.2-0.3,0.3-0.7,0.4-1.1
	c0.1-0.3,0.1-0.8,0.4-1c0.6-0.4,0.9,0.8,1,1.2c0.2,0.8,0.4,1.6,0.8,2.3c0.8,1.5,1.8,2.8,3.4,3.5c1.7,0.7,3.9,0.1,5.6-0.4
	c0.9-0.2,2.3-0.7,2.8,0.3c0.5,0.8,0.5,2.5,0.6,3.4c0.2,1.8,0.4,3.3,1.5,4.8c1.7,2.5,5.2,4.2,6,7.2c0.9,3.1,0.2,6.5,0.4,9.8
	c0.2,4.7,0,9.4,0,14c0,2.4,0.3,12.7,0.3,12.7H39c0,0-0.9-18.3-0.9-19.2c0.1-5.5,0.4-11,1.9-16.3c3-10.1,10.5-11.2,18.9-13.2
	C59.8,140,60.7,139.7,61.5,139.5z M104.2,162.8c-0.2-3-0.7-6.3-0.3-9.3c0.2-1.3,0.9-2.6,1.9-3.4c1.1-0.8,2.7-1.5,3.3-2.8
	c0.6-1.4,0.6-3.2,1.5-4.5c0.6-0.8,1.4-1.5,2.2-2.1c0.7-0.5,1.4-0.8,2.2-1.1c0.8-0.3,1.5-0.7,2.3-1.1c0.7-0.3,1.4-0.4,2.1-0.7
	c1.9-0.8,4.8-3.4,6.8-3.1c1.4,0.2,3,0.8,4.4,1.1c2.9,0.5,5.7,1,8.6,1.7c5.9,1.5,12,2.4,18.1,3.6c2.8,0.6,5.6,0.6,8.1,2.4
	c2.2,1.6,4.1,4,5.3,6.5c2.1,4.4,3.5,9.2,4.5,14c0.9,4.1,2.6,24.9,2.6,24.9h-72c0,0-0.7-7.9-0.8-9.6c-0.1-3.9-0.1-7.7-0.5-11.6
	C104.4,166,104.3,164.4,104.2,162.8z M115.1,141.5c-0.5-0.6-1.4-0.6-2.1-0.4c-1.4,0.4-1.9,1.8-3,2.6c0.4-1.4,0.7-3,2.1-3.6
	c2.5-1,5.7-1.5,7.6-3.6c1.2-1.3,1.8-3.1,2.3-4.8c0.1-0.5,0.4-1,0.6-1.5c0.2-0.6,0.3-1.2,0.4-1.8c0.1-0.8,0.1-1.6-0.3-2.3
	c-0.1-0.2-0.4-0.5-0.5-0.7c0-0.3,0-0.8-0.1-1c0.4,0.1,1.9,1.5,2.1,1.6c0.6,0.6,1,1.2,1.5,1.9c0.8,1.3,0.9,2.9,1.3,4.3
	c0.4,1.5,0.4,3.1,0.3,4.6c-0.1,1.5-0.6,3-0.9,4.4c-0.5,2.5-2.1,5.4-3.7,7.3c-0.6,0.7-0.9,1.1-1.2,2c-0.4,1.4-1.8,3-2.4,0.8
	c-0.4-1.4-0.9-2.8-1.5-4.1c-0.5-1.3-1.4-2.4-1.9-3.7c-0.2-0.5-0.1-1-0.2-1.4C115.4,142,115.3,141.7,115.1,141.5z M94.9,135.3
	c0.4,0.1,0.9,0.3,1.3,0.3c0.9,0.2,1.8,0.1,2.7,0.5c0.3,0.1,0.6,0.4,0.8,0.7c0.2,0.3,0.1,0.7,0.2,1.1c-0.1-0.3-0.5-0.3-0.8-0.2
	c-0.4,0-0.5,0.5-0.7,0.8c-0.3,0.4-0.5,0.9-0.7,1.3c-0.4,0.9-0.8,1.8-1.1,2.7c-0.9,2.4-1.4,4.9-2.2,7.3c-0.2,0.8-1.3,4-2.1,3.6
	c-0.5-0.2-0.8-1.8-1-2.3c-0.3-0.7-0.7-1.3-1.1-1.9c-2.6-3.8-5-7.6-7.2-11.7c-0.7-1.3-1.2-2.3-0.5-3.6c0.7-1.2,1.4-2.3,1.4-3.8
	c0.1-1,0-2,0-3c0-0.9,0.2-1.8,0.4-2.7c0.2-0.9,0.6-2.1,1.4-2.6c0.2-0.1,0.5-0.3,1.1-0.3c0,0.2,0,0.6,0,0.8c-0.4,0-0.8,0.6-0.9,0.8
	c-0.4,0.8-0.3,2-0.1,2.9c0.8,3.5,3.4,5.8,6.2,7.8C93,134.5,93.9,134.9,94.9,135.3z"/>
<path fill="#E9EAEA" d="M99.9,142.8c0,0.8-0.5,1.4-1.1,1.4c-0.6,0-1.1-0.6-1.1-1.4s0.5-1.4,1.1-1.4
	C99.4,141.4,99.9,142.1,99.9,142.8z M98.6,141.4c-0.6,0-1.1,0.6-1.1,1.4s0.5,1.4,1.1,1.4s1.1-0.6,1.1-1.4S99.2,141.4,98.6,141.4z
	 M98.8,143.9c0.4-0.1,0.6-0.5,0.7-0.8c0.1-0.3,0-0.9-0.3-1.1c-0.3-0.3-0.7-0.3-1.1-0.1c-0.1,0.1-0.1,0.1-0.1,0.2
	c0.2-0.2,0.7-0.3,0.9-0.1c0.3,0.2,0.4,0.6,0.4,1c0,0.3-0.1,0.7-0.5,0.8c-0.2,0.1-0.6,0-0.7-0.2C98.1,143.9,98.6,144,98.8,143.9z
	 M98.3,142.5c-0.2,0-0.1,0.3,0,0.3C98.5,142.7,98.5,142.4,98.3,142.5z M98.8,142.7c0.2,0,0.2-0.3,0-0.2
	C98.7,142.5,98.7,142.7,98.8,142.7z M98.3,143.2c0.1,0.1,0.2,0,0.2-0.1C98.4,142.8,98.1,143,98.3,143.2z M98.8,143.3
	c0.2,0,0.2-0.3,0-0.3C98.6,143,98.7,143.2,98.8,143.3z M98.4,142.7c0.2,0.1,0.2-0.3,0-0.2C98.3,142.5,98.3,142.6,98.4,142.7z
	 M98.9,142.7c0.2,0,0.1-0.3-0.1-0.2C98.7,142.5,98.8,142.7,98.9,142.7z M98.3,143.2c0.1,0.1,0.2-0.2,0.1-0.2
	C98.3,143,98.3,143.1,98.3,143.2C98.3,143.2,98.3,143.2,98.3,143.2z M98.7,143.2c0,0.2,0.3,0.1,0.2-0.1
	C99,142.9,98.7,143,98.7,143.2z M108.4,153.6c0,0.8-0.6,1.5-1.4,1.5c-0.8,0-1.4-0.7-1.4-1.5c0-0.8,0.6-1.5,1.4-1.5
	C107.7,152.1,108.4,152.8,108.4,153.6z M106.7,152.1c-0.8,0-1.4,0.7-1.4,1.5c0,0.8,0.6,1.5,1.4,1.5c0.8,0,1.4-0.7,1.4-1.5
	C108.1,152.8,107.5,152.1,106.7,152.1z M106.9,154.8c0.5-0.1,0.8-0.5,0.8-0.9c0.1-0.4,0-0.9-0.3-1.2c-0.4-0.3-0.9-0.4-1.4-0.1
	c-0.1,0.1-0.1,0.1-0.2,0.2c0.3-0.2,0.8-0.3,1.2-0.1c0.4,0.2,0.5,0.7,0.5,1.1c0,0.4-0.2,0.8-0.7,0.9c-0.3,0.1-0.7,0-0.9-0.2
	C106,154.8,106.6,154.9,106.9,154.8z M106.3,153.2c-0.2,0-0.2,0.3,0,0.3C106.5,153.5,106.5,153.2,106.3,153.2z M107,153.5
	c0.2,0,0.2-0.3,0-0.3C106.8,153.3,106.8,153.5,107,153.5z M106.2,154c0.2,0.1,0.3,0,0.2-0.2C106.4,153.6,106,153.9,106.2,154z
	 M106.9,154.1c0.3,0.1,0.2-0.4,0-0.3C106.7,153.9,106.7,154.1,106.9,154.1z M106.4,153.5c0.2,0.1,0.2-0.3,0-0.3
	C106.2,153.3,106.3,153.4,106.4,153.5z M107,153.5c0.3,0,0.1-0.3-0.1-0.2C106.8,153.3,106.9,153.5,107,153.5z M106.3,154.1
	c0.2,0.1,0.3-0.2,0.1-0.2C106.3,153.8,106.2,153.9,106.3,154.1C106.3,154.1,106.3,154.1,106.3,154.1z M106.9,154
	c0,0.2,0.4,0.1,0.3-0.1C107.1,153.8,106.8,153.8,106.9,154z M108.9,169.9c0,0.8-0.6,1.4-1.4,1.4s-1.4-0.6-1.4-1.4
	c0-0.8,0.6-1.4,1.4-1.4S108.9,169.1,108.9,169.9z M107.3,168.5c-0.8,0-1.4,0.6-1.4,1.4c0,0.8,0.6,1.4,1.4,1.4s1.4-0.6,1.4-1.4
	C108.7,169.1,108,168.5,107.3,168.5z M107.5,171c0.5-0.1,0.8-0.5,0.8-0.8c0.1-0.3,0-0.9-0.3-1.1c-0.4-0.3-0.9-0.3-1.3-0.1
	c-0.1,0.1-0.1,0.1-0.2,0.2c0.3-0.2,0.8-0.3,1.2-0.1c0.4,0.2,0.5,0.6,0.5,1c0,0.3-0.2,0.7-0.7,0.8c-0.3,0.1-0.7,0-0.9-0.2
	C106.6,171,107.2,171.1,107.5,171z M106.9,169.5c-0.2,0-0.2,0.3,0,0.3C107.1,169.8,107.1,169.5,106.9,169.5z M107.5,169.8
	c0.2,0,0.2-0.3,0-0.2C107.3,169.6,107.3,169.8,107.5,169.8z M106.8,170.3c0.1,0.1,0.3,0,0.2-0.1
	C106.9,169.9,106.6,170.1,106.8,170.3z M107.5,170.4c0.3,0,0.2-0.3,0-0.3C107.3,170.1,107.3,170.3,107.5,170.4z M107,169.7
	c0.2,0.1,0.2-0.3,0-0.2C106.8,169.5,106.8,169.7,107,169.7z M107.6,169.8c0.3,0,0.1-0.3-0.1-0.2
	C107.4,169.6,107.5,169.8,107.6,169.8z M106.9,170.3c0.2,0.1,0.3-0.2,0.1-0.2C106.9,170,106.8,170.2,106.9,170.3
	C106.9,170.3,106.9,170.3,106.9,170.3z M107.4,170.2c0,0.2,0.4,0.1,0.3-0.1C107.7,170,107.4,170.1,107.4,170.2z M110,186.3
	c0,0.8-0.6,1.4-1.4,1.4s-1.4-0.6-1.4-1.4c0-0.8,0.6-1.4,1.4-1.4S110,185.5,110,186.3z M108.4,184.9c-0.8,0-1.4,0.6-1.4,1.4
	c0,0.8,0.6,1.4,1.4,1.4c0.8,0,1.4-0.6,1.4-1.4C109.8,185.5,109.2,184.9,108.4,184.9z M108.6,187.4c0.5-0.1,0.8-0.5,0.8-0.8
	c0.1-0.3,0-0.9-0.3-1.1c-0.4-0.3-0.9-0.3-1.3-0.1c-0.1,0.1-0.1,0.1-0.2,0.2c0.3-0.2,0.8-0.3,1.2-0.1c0.4,0.2,0.5,0.6,0.5,1
	c0,0.3-0.2,0.7-0.7,0.8c-0.3,0.1-0.7,0-0.9-0.2C107.7,187.4,108.3,187.5,108.6,187.4z M108,185.9c-0.2,0-0.2,0.3,0,0.3
	C108.2,186.2,108.2,185.9,108,185.9z M108.6,186.2c0.2,0,0.2-0.3,0-0.2C108.5,186,108.5,186.2,108.6,186.2z M107.9,186.7
	c0.1,0.1,0.3,0,0.2-0.1C108.1,186.3,107.7,186.5,107.9,186.7z M108.6,186.8c0.3,0,0.2-0.3,0-0.3
	C108.4,186.5,108.4,186.7,108.6,186.8z M108.1,186.2c0.2,0.1,0.2-0.3,0-0.2C107.9,186,107.9,186.1,108.1,186.2z M108.7,186.2
	c0.3,0,0.1-0.3-0.1-0.2C108.5,186,108.6,186.2,108.7,186.2z M108,186.7c0.2,0.1,0.3-0.2,0.1-0.2C108,186.4,107.9,186.6,108,186.7
	C108,186.7,108,186.7,108,186.7z M108.5,186.7c0,0.2,0.4,0.1,0.3-0.1C108.8,186.4,108.5,186.5,108.5,186.7z M121.3,149.2
	c0,0.6-0.4,1.1-0.9,1.1c-0.5,0-0.9-0.5-0.9-1.1c0-0.6,0.4-1.1,0.9-1.1C120.9,148.1,121.3,148.6,121.3,149.2z M120.3,148.1
	c-0.5,0-0.9,0.5-0.9,1.1c0,0.6,0.4,1.1,0.9,1.1c0.5,0,0.9-0.5,0.9-1.1C121.1,148.6,120.8,148.1,120.3,148.1z M120.4,150.1
	c0.3-0.1,0.5-0.4,0.5-0.7c0-0.3,0-0.7-0.2-0.9c-0.2-0.2-0.6-0.3-0.8,0c0,0-0.1,0.1-0.1,0.1c0.2-0.2,0.5-0.2,0.7-0.1
	c0.3,0.2,0.3,0.5,0.3,0.8c0,0.3-0.1,0.6-0.4,0.7c-0.2,0.1-0.4,0-0.6-0.1C119.8,150,120.2,150.1,120.4,150.1z M120,148.9
	c-0.1,0-0.1,0.2,0,0.2C120.2,149.1,120.2,148.9,120,148.9z M120.4,149.1c0.1,0,0.1-0.2,0-0.2C120.3,148.9,120.3,149.1,120.4,149.1z
	 M120,149.5c0.1,0.1,0.2,0,0.1-0.1C120.1,149.2,119.9,149.4,120,149.5z M120.4,149.5c0.2,0,0.1-0.3,0-0.2
	C120.3,149.4,120.3,149.5,120.4,149.5z M120.1,149.1c0.1,0.1,0.2-0.2,0-0.2C120,148.9,120,149,120.1,149.1z M120.5,149.1
	c0.2,0,0-0.2-0.1-0.2C120.3,149,120.4,149.1,120.5,149.1z M120.1,149.5c0.1,0.1,0.2-0.1,0.1-0.2C120.1,149.3,120,149.4,120.1,149.5
	C120,149.5,120,149.5,120.1,149.5z M120.4,149.5c0,0.1,0.2,0.1,0.2-0.1C120.5,149.3,120.3,149.3,120.4,149.5z M93.6,149.9
	c0,0.6-0.4,1.1-0.9,1.1c-0.5,0-0.9-0.5-0.9-1.1s0.4-1.1,0.9-1.1C93.2,148.8,93.6,149.3,93.6,149.9z M92.6,148.8
	c-0.5,0-0.9,0.5-0.9,1.1s0.4,1.1,0.9,1.1c0.5,0,0.9-0.5,0.9-1.1S93.1,148.8,92.6,148.8z M92.7,150.8c0.3-0.1,0.5-0.4,0.5-0.7
	c0-0.3,0-0.7-0.2-0.9c-0.2-0.2-0.6-0.3-0.8,0c0,0-0.1,0.1-0.1,0.1c0.2-0.2,0.5-0.2,0.7-0.1c0.3,0.2,0.3,0.5,0.3,0.8
	c0,0.3-0.1,0.6-0.4,0.7c-0.2,0.1-0.4,0-0.6-0.1C92.2,150.7,92.5,150.8,92.7,150.8z M92.4,149.6c-0.1,0-0.1,0.2,0,0.2
	C92.5,149.8,92.5,149.6,92.4,149.6z M92.7,149.8c0.1,0,0.1-0.2,0-0.2C92.6,149.6,92.6,149.8,92.7,149.8z M92.3,150.2
	c0.1,0.1,0.2,0,0.1-0.1C92.4,149.9,92.2,150.1,92.3,150.2z M92.7,150.3c0.2,0,0.1-0.3,0-0.2C92.6,150.1,92.6,150.2,92.7,150.3z
	 M92.4,149.8c0.1,0.1,0.2-0.2,0-0.2C92.3,149.6,92.3,149.7,92.4,149.8z M92.8,149.8c0.2,0,0-0.2-0.1-0.2
	C92.7,149.7,92.7,149.8,92.8,149.8z M92.4,150.2c0.1,0.1,0.2-0.1,0.1-0.2C92.4,150,92.3,150.1,92.4,150.2
	C92.3,150.2,92.3,150.2,92.4,150.2z M92.7,150.2c0,0.1,0.2,0.1,0.2-0.1C92.8,150,92.7,150,92.7,150.2z"/>
<g>
	<g>
		<path fill="none" stroke="#7C7976" stroke-width="0.8367" stroke-miterlimit="10" d="M106.4,188.6c-0.1-0.7-0.2-1.4-0.3-2.1"/>
		<path fill="none" stroke="#7C7976" stroke-width="0.8367" stroke-miterlimit="10" stroke-dasharray="3.9815,3.9815" d="
			M105.7,182.5c-0.1-1.2-0.2-2.4-0.1-3.5c0.2-3.1-0.2-5.6-0.3-8.7c-0.1-3.1-0.4-6.1-0.8-9.2c-0.1-1.5-0.1-3,0-4.4
			c0.1-1.5-0.4-3.1,0.2-4.5c0.6-1.5,2.3-2,3.6-2.8c1-0.6,1.5-1.4,1.7-2.2"/>
		<path fill="none" stroke="#7C7976" stroke-width="0.8367" stroke-miterlimit="10" d="M110.4,145.3c0.1-0.7,0.1-1.4,0.3-2.1"/>
	</g>
	<g>
		<path fill="none" stroke="#7C7976" stroke-width="0.8367" stroke-miterlimit="10" d="M111.3,188.5c-0.1-0.7-0.2-1.4-0.2-2.1"/>
		<path fill="none" stroke="#7C7976" stroke-width="0.8367" stroke-miterlimit="10" stroke-dasharray="4.0465,4.0465" d="
			M110.6,182.4c-0.1-1-0.1-2,0-3c0.2-3.1,0-6.3-0.3-9.4c-0.3-3.1-0.4-6.3-0.7-9.4c-0.2-1.5-0.2-3.1-0.3-4.6c-0.1-1.6-0.1-3.1,1-4.3
			c1.4-1.7,2.8-2.5,2.8-4.8c0-0.6,0-1.1-0.1-1.7"/>
		<path fill="none" stroke="#7C7976" stroke-width="0.8367" stroke-miterlimit="10" d="M112.7,143.1c0-0.7,0.3-1.2,0.4-2"/>
	</g>
	<g>
		<path fill="none" stroke="#7C7976" stroke-width="0.8367" stroke-miterlimit="10" d="M127.1,132.9c0,0.6-0.1,1.4-0.2,2.1"/>
		<path fill="none" stroke="#7C7976" stroke-width="0.8367" stroke-miterlimit="10" stroke-dasharray="5.3598,5.3598" d="M126,140.3
			c-0.4,1.2-1,2.4-1.4,3.5c-0.6,1.3-1.6,2.2-2.4,3.5"/>
		<path fill="none" stroke="#7C7976" stroke-width="0.8367" stroke-miterlimit="10" d="M121,149.7c-0.3,0.7-0.7,1.3-1.2,1.7
			c-0.4-0.4-0.7-1.2-0.9-1.9"/>
		<path fill="none" stroke="#7C7976" stroke-width="0.8367" stroke-miterlimit="10" stroke-dasharray="3.5213,3.5213" d="
			M117.7,146.3c-0.3-0.6-0.5-1.2-0.7-1.8c-0.3-1-0.5-2.2-0.9-3.2"/>
		<path fill="none" stroke="#7C7976" stroke-width="0.8367" stroke-miterlimit="10" d="M115,139.9c-0.5-0.3-1.2-0.3-2,0"/>
	</g>
	<g>
		<path fill="none" stroke="#7C7976" stroke-width="0.8367" stroke-miterlimit="10" d="M98.9,136.2c-0.8,0-1.3,0.5-1.5,1.2"/>
		<path fill="none" stroke="#7C7976" stroke-width="0.8367" stroke-miterlimit="10" stroke-dasharray="4.5255,4.5255" d="
			M95.9,141.7c-0.2,0.6-0.5,1.3-0.7,2c-0.5,1.4-0.8,2.9-1.2,4.3c0,0.1,0,0.1-0.1,0.2"/>
		<path fill="none" stroke="#7C7976" stroke-width="0.8367" stroke-miterlimit="10" d="M93.4,150.4c-0.2,0.7-0.5,1.3-1,1.8
			c-0.4-0.5-0.6-1.3-0.8-1.9"/>
		<path fill="none" stroke="#7C7976" stroke-width="0.8367" stroke-miterlimit="10" stroke-dasharray="3.372,3.372" d="M89.7,147.5
			c-0.6-0.9-1-1.9-1.8-2.8c-0.9-1.1-1.5-2.5-2.2-3.8c-0.6-1.2-1.3-2.4-2-3.5"/>
		<path fill="none" stroke="#7C7976" stroke-width="0.8367" stroke-miterlimit="10" d="M83,135.9c-0.3-0.6-0.4-1.2-0.4-2"/>
	</g>
	<g>
		<path fill="none" stroke="#7C7976" stroke-width="0.8367" stroke-miterlimit="10" d="M103.7,152.8c-0.1-0.7-0.4-1.3-0.8-1.9"/>
		<path fill="none" stroke="#7C7976" stroke-width="0.8367" stroke-miterlimit="10" stroke-dasharray="2.7506,2.7506" d="
			M100.8,149.1c-0.4-0.2-0.7-0.5-1.1-0.7c-0.8-0.5-1.5-1.2-2-2"/>
		<path fill="none" stroke="#7C7976" stroke-width="0.8367" stroke-miterlimit="10" d="M96.9,145.3c-0.4-0.6-0.6-1.3-0.8-1.9"/>
	</g>
	<g>
		<path fill="none" stroke="#7C7976" stroke-width="0.8367" stroke-miterlimit="10" d="M102.6,146.6c-0.6,0.2-1.3,0.3-2.1,0.4"/>
		<path fill="none" stroke="#7C7976" stroke-width="0.8367" stroke-miterlimit="10" d="M97.6,146.6c-0.7-0.2-1.4-0.4-2-0.6"/>
	</g>
	<g>
		<path fill="none" stroke="#7C7976" stroke-width="0.8367" stroke-miterlimit="10" d="M116.2,145c-0.8,0.3-1.4,0.5-2,0.7"/>
		<path fill="none" stroke="#7C7976" stroke-width="0.8367" stroke-miterlimit="10" d="M111.7,146.2c-0.8,0-1.3-0.2-2.1,0.1"/>
	</g>
	<g>
		<path fill="none" stroke="#7C7976" stroke-width="0.8367" stroke-miterlimit="10" d="M154.3,188.4c0-0.7,0-1.4,0-2.1"/>
		<path fill="none" stroke="#7C7976" stroke-width="0.8367" stroke-miterlimit="10" stroke-dasharray="3.9315,3.9315" d="M154,182.4
			c-0.2-4.3-0.5-8.7-0.1-13c0.5-5.3,3-10.8,5.2-15.7c0.8-1.8,1.9-3.4,2.8-5c0.3-0.5,0.5-1.1,0.8-1.7"/>
		<path fill="none" stroke="#7C7976" stroke-width="0.8367" stroke-miterlimit="10" d="M163.5,145c0.3-0.6,0.7-1.2,1.2-1.7"/>
	</g>
	<g>
		<path fill="none" stroke="#7C7976" stroke-width="0.8367" stroke-miterlimit="10" d="M153.2,188.4c0-0.5,0-1.2,0-2.1"/>
		<path fill="none" stroke="#7C7976" stroke-width="0.8367" stroke-miterlimit="10" stroke-dasharray="3.9691,3.9691" d="
			M153.1,182.3c-0.1-2.1-0.2-4.2-0.2-5.1c0-3.8-0.4-7.9,0.5-11.5c1-4,2.5-8,4.3-11.7c1.3-2.6,2.7-5,4.1-7.5"/>
		<path fill="none" stroke="#7C7976" stroke-width="0.8367" stroke-miterlimit="10" d="M162.7,144.7c0.3-0.6,0.6-1.2,0.9-1.9"/>
	</g>
	<g>
		<path fill="none" stroke="#7C7976" stroke-width="0.8367" stroke-miterlimit="10" d="M163.5,144.8c-0.6-0.4-1.2-0.6-1.9-0.8"/>
		<path fill="none" stroke="#7C7976" stroke-width="0.8367" stroke-miterlimit="10" stroke-dasharray="3.6921,3.6921" d="M158,143.3
			c-0.4,0-0.8-0.1-1.1-0.1c-2.3-0.3-4.6-0.7-6.9-1.1c-3.9-0.8-7.8-2.2-11.7-3c-1.9-0.4-3.8-0.7-5.6-1.5c-0.5-0.2-1.1-0.3-1.6-0.5"/>
		<path fill="none" stroke="#7C7976" stroke-width="0.8367" stroke-miterlimit="10" d="M129.3,136.7c-0.7-0.2-1.3-0.5-1.8-1"/>
	</g>
	<g>
		<path fill="none" stroke="#7C7976" stroke-width="0.8367" stroke-miterlimit="10" d="M163.2,145.5c-0.6-0.3-1.3-0.5-2-0.6"/>
		<path fill="none" stroke="#7C7976" stroke-width="0.8367" stroke-miterlimit="10" stroke-dasharray="4.6989,4.6989" d="
			M156.5,144.5c-2-0.2-4-0.3-6-0.7c-3.8-0.7-7.3-2.2-11-3.1c-1.9-0.5-3.7-1-5.6-1.5c-0.8-0.2-1.6-0.4-2.4-0.6"/>
		<path fill="none" stroke="#7C7976" stroke-width="0.8367" stroke-miterlimit="10" d="M129.1,138c-0.7-0.2-1.3-0.6-1.7-1.2"/>
	</g>
	<g>
		<path fill="none" stroke="#7C7976" stroke-width="0.8367" stroke-miterlimit="10" d="M47.7,144c0.7-0.2,1.4-0.2,2.1,0"/>
		<path fill="none" stroke="#7C7976" stroke-width="0.8367" stroke-miterlimit="10" stroke-dasharray="4.2619,4.2619" d="
			M53.3,146.3c1,1.1,1.8,2.3,2.5,3.4c1.2,1.8,2,3.8,2.9,5.8c1.7,4.1,3.7,8,4.4,12.4c0.3,1.8,0.8,3.8,0.7,5.7
			c-0.1,1.8-0.4,3.6-0.4,5.5c0,1.8-0.2,3.5-0.1,5.2c0,0,0,0.1,0,0.1"/>
		<path fill="none" stroke="#7C7976" stroke-width="0.8367" stroke-miterlimit="10" d="M63.4,186.5c0,0.8,0.1,1.5,0.1,2.1"/>
	</g>
	<g>
		<path fill="none" stroke="#7C7976" stroke-width="0.8367" stroke-miterlimit="10" d="M49.2,143.1c0.7,0,1.4,0.1,2,0.4"/>
		<path fill="none" stroke="#7C7976" stroke-width="0.8367" stroke-miterlimit="10" stroke-dasharray="4.2622,4.2622" d="
			M54.5,146.2c0.8,1,1.6,2.1,2.1,2.9c1.1,1.7,1.9,3.4,2.8,5.1c1.7,3.6,2.9,7.4,4.3,11c2.3,6,0.4,12.7,0.7,19"/>
		<path fill="none" stroke="#7C7976" stroke-width="0.8367" stroke-miterlimit="10" d="M64.5,186.5c0,0.7,0,1.4-0.1,2.1"/>
	</g>
	<g>
		<path fill="none" stroke="#7C7976" stroke-width="0.8367" stroke-miterlimit="10" d="M50.5,144.8c0,0,0.8-0.5,1.8-1"/>
		<path fill="none" stroke="#7C7976" stroke-width="0.8367" stroke-miterlimit="10" stroke-dasharray="4.1792,4.1792" d="M56.1,142
			c1.2-0.4,2.4-0.6,3.7-0.8c2-0.4,4.1-0.7,6.1-1c1.9-0.3,3.5-1.2,5.3-1.8c2.2-0.7,4.8-0.9,7.2-1.6"/>
		<path fill="none" stroke="#7C7976" stroke-width="0.8367" stroke-miterlimit="10" d="M80.4,136.1c0.6-0.3,1.2-0.7,1.7-1.2"/>
	</g>
	<g>
		<path fill="none" stroke="#7C7976" stroke-width="0.8367" stroke-miterlimit="10" d="M51.9,145c0.6-0.5,1.2-0.8,1.7-1.2"/>
		<path fill="none" stroke="#7C7976" stroke-width="0.8367" stroke-miterlimit="10" stroke-dasharray="3.9279,3.9279" d="
			M57.3,142.6c1.6-0.3,3.2-0.5,5-0.8c2.1-0.3,4-0.5,6-1.2c1.7-0.6,3.7-1.5,5.5-1.8c1.6-0.2,3-0.6,4.4-1"/>
		<path fill="none" stroke="#7C7976" stroke-width="0.8367" stroke-miterlimit="10" d="M80.1,137.1c0.6-0.3,1.2-0.6,1.9-0.9"/>
	</g>
	<g>
		<path fill="none" stroke="#7C7976" stroke-width="0.8367" stroke-miterlimit="10" d="M120.8,188.7c0-0.6-0.1-1.4-0.1-2.1"/>
		<path fill="none" stroke="#7C7976" stroke-width="0.8367" stroke-miterlimit="10" stroke-dasharray="3.664,3.664" d="M120.6,183
			c0-1.9-0.1-3.9-0.1-5.5"/>
		<path fill="none" stroke="#7C7976" stroke-width="0.8367" stroke-miterlimit="10" d="M120.5,175.7c0-1,0-1.7,0-2.1
			c0.7,0,1.4,0.1,2.1,0.1"/>
		<path fill="none" stroke="#7C7976" stroke-width="0.8367" stroke-miterlimit="10" stroke-dasharray="4.3852,4.3852" d="M127,173.7
			c3.6,0,7.2-0.1,10.9,0.2c1.2,0.1,2.9,0,4.5,0"/>
		<path fill="none" stroke="#7C7976" stroke-width="0.8367" stroke-miterlimit="10" d="M144.6,173.7c1.2-0.1,2.1-0.1,2.1-0.1
			s0,0.9,0,2.1"/>
		<path fill="none" stroke="#7C7976" stroke-width="0.8367" stroke-miterlimit="10" stroke-dasharray="3.6638,3.6638" d="
			M146.6,179.3c0,0.7,0,1.3,0,1.8c0,1.2,0.1,2.4,0.1,3.7"/>
		<path fill="none" stroke="#7C7976" stroke-width="0.8367" stroke-miterlimit="10" d="M146.7,186.7c0,0.7,0,1.4-0.1,2.1"/>
	</g>
	<g>
		<path fill="none" stroke="#7C7976" stroke-width="0.8367" stroke-miterlimit="10" d="M120.5,178.1c0.3,0,1-0.1,2.1-0.1"/>
		<path fill="none" stroke="#7C7976" stroke-width="0.8367" stroke-miterlimit="10" stroke-dasharray="4.3561,4.3561" d="M127,178
			c4.8,0,11.1,0.1,15.3,0.2"/>
		<path fill="none" stroke="#7C7976" stroke-width="0.8367" stroke-miterlimit="10" d="M144.4,178.2c1.2,0,2,0.1,2.1,0.1"/>
	</g>
	<g>
		<path fill="none" stroke="#7C7976" stroke-width="0.8367" stroke-miterlimit="10" d="M121.9,172.9c-0.1,0-0.2,0-0.3,0
			c-0.6,0.1-1.2,0-1.8,0c-0.1-0.6,1.3-0.4,1.8-0.4"/>
		<path fill="none" stroke="#7C7976" stroke-width="0.8367" stroke-miterlimit="10" stroke-dasharray="4.8071,4.8071" d="
			M126.4,172.5c0.8,0,1.6,0,2.5,0.1c1.6,0.2,3.2-0.2,4.8-0.1c1.6,0.1,3.3,0.1,4.9,0.2c1.5,0.1,3-0.1,4.6-0.1c0,0,0.1,0,0.1,0"/>
		<path fill="none" stroke="#7C7976" stroke-width="0.8367" stroke-miterlimit="10" d="M145.6,172.6c0.7,0,1.4,0,2.1-0.1
			c-0.1,0.7,0,1.4,0,2.1"/>
		<path fill="none" stroke="#7C7976" stroke-width="0.8367" stroke-miterlimit="10" stroke-dasharray="4.0837,4.0837" d="
			M147.7,178.7c0,1,0,2.1,0,3.1c0,0.3,0,0.5,0,0.7c0,0.3,0,0.6,0,0.9c0,0.5,0,0.9,0,1.4"/>
		<path fill="none" stroke="#7C7976" stroke-width="0.8367" stroke-miterlimit="10" d="M147.6,186.9c0,0.5,0,1.1,0,1.6
			c0,0.1,0,0.2,0,0.3c0,0-0.2,0-0.2,0c0,0,0-0.7,0-1c0-0.4,0-0.7,0-1.1"/>
		<path fill="none" stroke="#7C7976" stroke-width="0.8367" stroke-miterlimit="10" stroke-dasharray="3.867,3.867" d="M147.3,182.8
			c0-0.7,0-1.4,0-2.1c0-1.2,0-2.5,0-3.7"/>
		<path fill="none" stroke="#7C7976" stroke-width="0.8367" stroke-miterlimit="10" d="M147.3,175c0-0.7,0-1.4,0-2.1
			c0,0-1.1,0-2.1,0"/>
		<path fill="none" stroke="#7C7976" stroke-width="0.8367" stroke-miterlimit="10" stroke-dasharray="4.6789,4.6789" d="M140.6,173
			c-1,0-1.9-0.1-2.9-0.1c-1.2,0-2.3,0.1-3.5,0.1c-2.5,0-5-0.1-7.5-0.1c-0.8,0-1.6,0-2.4,0"/>
	</g>
</g>
</svg>
